<svg xmlns="http://www.w3.org/2000/svg" xmlns:xlink="http://www.w3.org/1999/xlink" width="85" zoomAndPan="magnify" viewBox="0 0 63.75 58.499998" height="78" preserveAspectRatio="xMidYMid meet" version="1.0"><defs><clipPath id="61c0820492"><path d="M 0.144531 0 L 63.355469 0 L 63.355469 57.261719 L 0.144531 57.261719 Z M 0.144531 0 " clip-rule="nonzero"/></clipPath><clipPath id="c684f3f6e9"><path d="M 52.574219 36.339844 L 52.929688 36.339844 L 52.929688 36.59375 L 52.574219 36.59375 Z M 52.574219 36.339844 " clip-rule="nonzero"/></clipPath><clipPath id="fc32768a89"><path d="M 52.90625 36.507812 C 52.238281 36.730469 52.832031 36.359375 52.832031 36.359375 " clip-rule="nonzero"/></clipPath></defs><g clip-path="url(#61c0820492)"><path fill="#fdcf60" d="M 33.089844 0.0351562 C 32.644531 0.0351562 32.203125 0.0820312 31.765625 0.167969 C 31.324219 0.253906 30.898438 0.382812 30.488281 0.554688 C 30.074219 0.726562 29.679688 0.9375 29.308594 1.183594 C 28.9375 1.433594 28.59375 1.714844 28.277344 2.03125 C 27.960938 2.347656 27.679688 2.691406 27.433594 3.0625 C 27.183594 3.433594 26.972656 3.824219 26.804688 4.238281 C 26.632812 4.652344 26.503906 5.078125 26.414062 5.515625 C 26.328125 5.953125 26.285156 6.398438 26.285156 6.84375 C 26.285156 7.289062 26.328125 7.734375 26.414062 8.171875 C 26.503906 8.609375 26.632812 9.035156 26.804688 9.449219 C 26.972656 9.863281 27.183594 10.253906 27.433594 10.625 C 27.679688 10.996094 27.960938 11.339844 28.277344 11.65625 C 28.59375 11.972656 28.9375 12.253906 29.308594 12.503906 C 29.679688 12.753906 30.074219 12.960938 30.488281 13.132812 C 30.898438 13.304688 31.324219 13.433594 31.765625 13.519531 C 32.203125 13.605469 32.644531 13.652344 33.089844 13.652344 C 33.539062 13.652344 33.980469 13.605469 34.417969 13.519531 C 34.859375 13.433594 35.285156 13.304688 35.695312 13.132812 C 36.109375 12.960938 36.5 12.753906 36.875 12.503906 C 37.246094 12.253906 37.589844 11.972656 37.90625 11.65625 C 38.222656 11.339844 38.503906 10.996094 38.75 10.625 C 39 10.253906 39.210938 9.863281 39.378906 9.449219 C 39.550781 9.035156 39.679688 8.609375 39.769531 8.171875 C 39.855469 7.734375 39.898438 7.289062 39.898438 6.84375 C 39.898438 6.398438 39.855469 5.953125 39.769531 5.515625 C 39.679688 5.078125 39.550781 4.652344 39.378906 4.238281 C 39.210938 3.824219 39 3.433594 38.75 3.0625 C 38.503906 2.691406 38.222656 2.347656 37.90625 2.03125 C 37.589844 1.714844 37.246094 1.433594 36.875 1.183594 C 36.5 0.9375 36.109375 0.726562 35.695312 0.554688 C 35.285156 0.382812 34.859375 0.253906 34.417969 0.167969 C 33.980469 0.0820312 33.539062 0.0351562 33.089844 0.0351562 Z M 63.042969 0.339844 C 55.546875 1.417969 49 5.402344 44.558594 11.117188 C 45.039062 11 45.53125 10.925781 46.023438 10.925781 C 48.742188 10.925781 51.167969 12.757812 51.914062 15.371094 C 52.84375 18.617188 50.957031 22.015625 47.707031 22.945312 L 38.714844 25.515625 C 38.605469 26.539062 38.539062 27.574219 38.539062 28.625 C 38.539062 43.027344 49.191406 54.90625 63.042969 56.890625 Z M 46.199219 13.703125 C 45.765625 13.671875 45.328125 13.714844 44.898438 13.835938 L 36.019531 16.375 L 26.5 16.375 C 23.949219 16.375 21.507812 17.589844 20.042969 19.546875 L 12.230469 28.34375 C 12.230469 28.34375 12.214844 28.367188 12.199219 28.398438 C 11.050781 29.671875 11.003906 31.617188 12.167969 32.929688 L 22.199219 44.214844 L 22.199219 53.617188 C 22.199219 55.398438 23.480469 57.019531 25.253906 57.195312 C 27.292969 57.402344 29.007812 55.808594 29.007812 53.8125 L 29.007812 42.921875 C 29.007812 42.183594 28.769531 41.472656 28.332031 40.886719 C 28.273438 40.808594 22.148438 32.722656 22.148438 32.722656 L 30.367188 23.179688 L 36.402344 23.179688 C 36.78125 23.179688 37.160156 23.128906 37.523438 23.023438 L 46.960938 20.328125 C 48.429688 19.90625 49.394531 18.585938 49.429688 17.132812 C 49.4375 16.6875 49.363281 16.230469 49.183594 15.785156 C 48.691406 14.542969 47.488281 13.792969 46.199219 13.703125 Z M 11.453125 36.21875 L 9.617188 43.207031 L 1.414062 51.40625 C 0.0859375 52.734375 0.0859375 54.890625 1.414062 56.21875 C 2.078125 56.882812 2.949219 57.214844 3.820312 57.214844 C 4.691406 57.214844 5.5625 56.882812 6.226562 56.21875 L 15.078125 47.367188 C 15.503906 46.941406 15.808594 46.414062 15.960938 45.828125 L 16.882812 42.332031 Z M 11.453125 36.21875 " fill-opacity="1" fill-rule="nonzero"/></g><g clip-path="url(#c684f3f6e9)"><g clip-path="url(#fc32768a89)"><path fill="#fdcf60" d="M 49.261719 33.382812 L 55.960938 33.382812 L 55.960938 39.855469 L 49.261719 39.855469 Z M 49.261719 33.382812 " fill-opacity="1" fill-rule="nonzero"/></g></g></svg>