<svg xmlns="http://www.w3.org/2000/svg" xmlns:xlink="http://www.w3.org/1999/xlink" width="94" zoomAndPan="magnify" viewBox="0 0 70.5 73.499996" height="98" preserveAspectRatio="xMidYMid meet" version="1.0"><defs><clipPath id="705d86caa9"><path d="M 62 58 L 66 58 L 66 72.25 L 62 72.25 Z M 62 58 " clip-rule="nonzero"/></clipPath><clipPath id="99adf12cdb"><path d="M 38 58 L 42 58 L 42 72.25 L 38 72.25 Z M 38 58 " clip-rule="nonzero"/></clipPath><clipPath id="4319e6ae70"><path d="M 43 69 L 53 69 L 53 72.25 L 43 72.25 Z M 43 69 " clip-rule="nonzero"/></clipPath><clipPath id="b4a55c9a1a"><path d="M 13 0.0117188 L 39 0.0117188 L 39 8 L 13 8 Z M 13 0.0117188 " clip-rule="nonzero"/></clipPath><clipPath id="2d62514798"><path d="M 0 4 L 53 4 L 53 72.25 L 0 72.25 Z M 0 4 " clip-rule="nonzero"/></clipPath><clipPath id="e8d6a6d4b9"><path d="M 21.871094 38.730469 L 22.226562 38.730469 L 22.226562 38.984375 L 21.871094 38.984375 Z M 21.871094 38.730469 " clip-rule="nonzero"/></clipPath><clipPath id="e5e06fa9b3"><path d="M 22.203125 38.898438 C 21.535156 39.121094 22.128906 38.75 22.128906 38.75 " clip-rule="nonzero"/></clipPath></defs><path fill="#fdcf60" d="M 68.253906 63.886719 L 67.214844 63.886719 L 67.214844 67.195312 L 68.253906 67.195312 C 69.160156 67.195312 69.898438 66.453125 69.898438 65.546875 C 69.898438 64.625 69.160156 63.886719 68.253906 63.886719 Z M 68.253906 63.886719 " fill-opacity="1" fill-rule="nonzero"/><path fill="#fdcf60" d="M 43.480469 63.886719 L 60.539062 63.886719 L 60.539062 67.179688 L 43.480469 67.179688 Z M 43.480469 63.886719 " fill-opacity="1" fill-rule="nonzero"/><g clip-path="url(#705d86caa9)"><path fill="#fdcf60" d="M 63.875 58.601562 C 63.136719 58.601562 62.519531 59.207031 62.519531 59.960938 L 62.519531 71.132812 C 62.519531 71.875 63.121094 72.492188 63.875 72.492188 C 64.632812 72.492188 65.234375 71.890625 65.234375 71.132812 L 65.234375 59.960938 C 65.234375 59.207031 64.617188 58.601562 63.875 58.601562 Z M 63.875 58.601562 " fill-opacity="1" fill-rule="nonzero"/></g><path fill="#fdcf60" d="M 34.105469 65.53125 C 34.105469 66.4375 34.84375 67.179688 35.75 67.179688 L 36.792969 67.179688 L 36.792969 63.886719 L 35.75 63.886719 C 34.84375 63.886719 34.105469 64.625 34.105469 65.53125 Z M 34.105469 65.53125 " fill-opacity="1" fill-rule="nonzero"/><g clip-path="url(#99adf12cdb)"><path fill="#fdcf60" d="M 40.128906 58.601562 C 39.375 58.601562 38.769531 59.207031 38.769531 59.960938 L 38.769531 71.132812 C 38.769531 71.875 39.375 72.492188 40.128906 72.492188 C 40.882812 72.492188 41.488281 71.890625 41.488281 71.132812 L 41.488281 59.960938 C 41.488281 59.207031 40.882812 58.601562 40.128906 58.601562 Z M 40.128906 58.601562 " fill-opacity="1" fill-rule="nonzero"/></g><g clip-path="url(#4319e6ae70)"><path fill="#fdcf60" d="M 43.480469 71.117188 C 43.480469 71.601562 43.375 72.054688 43.191406 72.476562 L 52.070312 72.476562 L 52.070312 69.171875 L 43.480469 69.171875 Z M 43.480469 71.117188 " fill-opacity="1" fill-rule="nonzero"/></g><g clip-path="url(#b4a55c9a1a)"><path fill="#fdcf60" d="M 14.296875 7.210938 L 37.820312 7.210938 C 38.421875 7.210938 38.90625 6.714844 38.90625 6.125 L 38.90625 1.097656 C 38.90625 0.492188 38.40625 0.0117188 37.820312 0.0117188 L 14.296875 0.0117188 C 13.691406 0.0117188 13.210938 0.507812 13.210938 1.097656 L 13.210938 6.109375 C 13.210938 6.714844 13.691406 7.210938 14.296875 7.210938 Z M 14.296875 7.210938 " fill-opacity="1" fill-rule="nonzero"/></g><g clip-path="url(#2d62514798)"><path fill="#fdcf60" d="M 43.480469 61.910156 L 52.070312 61.910156 L 52.070312 4.601562 L 40.898438 4.601562 L 40.898438 6.109375 C 40.898438 7.816406 39.523438 9.191406 37.820312 9.191406 L 14.296875 9.191406 C 12.589844 9.191406 11.21875 7.816406 11.21875 6.109375 L 11.21875 4.601562 L 0.046875 4.601562 L 0.046875 72.476562 L 37.078125 72.476562 C 36.898438 72.070312 36.792969 71.601562 36.792969 71.117188 L 36.792969 69.171875 L 35.75 69.171875 C 33.742188 69.171875 32.113281 67.539062 32.113281 65.53125 C 32.113281 63.523438 33.742188 61.894531 35.75 61.894531 L 36.792969 61.894531 L 36.792969 59.945312 C 36.792969 58.105469 38.285156 56.609375 40.128906 56.609375 C 41.96875 56.609375 43.464844 58.105469 43.464844 59.945312 L 43.464844 61.910156 Z M 8.53125 66.515625 C 5.828125 66.515625 3.625 64.308594 3.625 61.609375 C 3.625 58.90625 5.828125 56.699219 8.53125 56.699219 C 11.230469 56.699219 13.4375 58.90625 13.4375 61.609375 C 13.4375 64.308594 11.230469 66.515625 8.53125 66.515625 Z M 8.53125 51.914062 C 5.828125 51.914062 3.625 49.710938 3.625 47.007812 C 3.625 44.304688 5.828125 42.101562 8.53125 42.101562 C 11.230469 42.101562 13.4375 44.304688 13.4375 47.007812 C 13.4375 49.710938 11.230469 51.914062 8.53125 51.914062 Z M 8.53125 37.300781 C 5.828125 37.300781 3.625 35.097656 3.625 32.394531 C 3.625 29.691406 5.828125 27.488281 8.53125 27.488281 C 11.230469 27.488281 13.4375 29.691406 13.4375 32.394531 C 13.4375 35.113281 11.230469 37.300781 8.53125 37.300781 Z M 8.53125 22.703125 C 5.828125 22.703125 3.625 20.496094 3.625 17.796875 C 3.625 15.09375 5.828125 12.886719 8.53125 12.886719 C 11.230469 12.886719 13.4375 15.09375 13.4375 17.796875 C 13.4375 20.496094 11.230469 22.703125 8.53125 22.703125 Z M 19.160156 16.796875 L 47.496094 16.796875 C 48.039062 16.796875 48.492188 17.238281 48.492188 17.796875 C 48.492188 18.339844 48.054688 18.792969 47.496094 18.792969 L 19.160156 18.792969 C 18.613281 18.792969 18.160156 18.355469 18.160156 17.796875 C 18.175781 17.25 18.613281 16.796875 19.160156 16.796875 Z M 19.160156 31.414062 L 47.496094 31.414062 C 48.039062 31.414062 48.492188 31.851562 48.492188 32.410156 C 48.492188 32.953125 48.054688 33.40625 47.496094 33.40625 L 19.160156 33.40625 C 18.613281 33.40625 18.160156 32.96875 18.160156 32.410156 C 18.175781 31.851562 18.613281 31.414062 19.160156 31.414062 Z M 28.625 62.605469 L 19.160156 62.605469 C 18.613281 62.605469 18.160156 62.167969 18.160156 61.609375 C 18.160156 61.0625 18.601562 60.609375 19.160156 60.609375 L 28.625 60.609375 C 29.167969 60.609375 29.621094 61.050781 29.621094 61.609375 C 29.621094 62.167969 29.183594 62.605469 28.625 62.605469 Z M 19.160156 48.003906 C 18.613281 48.003906 18.160156 47.566406 18.160156 47.007812 C 18.160156 46.464844 18.601562 46.011719 19.160156 46.011719 L 47.496094 46.011719 C 48.039062 46.011719 48.492188 46.449219 48.492188 47.007812 C 48.492188 47.550781 48.054688 48.003906 47.496094 48.003906 Z M 19.160156 48.003906 " fill-opacity="1" fill-rule="nonzero"/></g><path fill="#fdcf60" d="M 8.53125 14.882812 C 6.914062 14.882812 5.617188 16.195312 5.617188 17.796875 C 5.617188 19.410156 6.929688 20.707031 8.53125 20.707031 C 10.144531 20.707031 11.445312 19.394531 11.445312 17.796875 C 11.445312 16.179688 10.144531 14.882812 8.53125 14.882812 Z M 8.53125 14.882812 " fill-opacity="1" fill-rule="nonzero"/><path fill="#fdcf60" d="M 8.53125 29.480469 C 6.914062 29.480469 5.617188 30.792969 5.617188 32.394531 C 5.617188 34.007812 6.929688 35.308594 8.53125 35.308594 C 10.144531 35.308594 11.445312 33.996094 11.445312 32.394531 C 11.445312 30.792969 10.144531 29.480469 8.53125 29.480469 Z M 8.53125 29.480469 " fill-opacity="1" fill-rule="nonzero"/><path fill="#fdcf60" d="M 8.53125 44.09375 C 6.914062 44.09375 5.617188 45.40625 5.617188 47.007812 C 5.617188 48.625 6.929688 49.921875 8.53125 49.921875 C 10.144531 49.921875 11.445312 48.609375 11.445312 47.007812 C 11.445312 45.394531 10.144531 44.09375 8.53125 44.09375 Z M 8.53125 44.09375 " fill-opacity="1" fill-rule="nonzero"/><path fill="#fdcf60" d="M 8.53125 58.695312 C 6.914062 58.695312 5.617188 60.007812 5.617188 61.609375 C 5.617188 63.222656 6.929688 64.519531 8.53125 64.519531 C 10.144531 64.519531 11.445312 63.207031 11.445312 61.609375 C 11.445312 60.007812 10.144531 58.695312 8.53125 58.695312 Z M 8.53125 58.695312 " fill-opacity="1" fill-rule="nonzero"/><g clip-path="url(#e8d6a6d4b9)"><g clip-path="url(#e5e06fa9b3)"><path fill="#fdcf60" d="M 18.554688 35.769531 L 25.261719 35.769531 L 25.261719 42.25 L 18.554688 42.25 Z M 18.554688 35.769531 " fill-opacity="1" fill-rule="nonzero"/></g></g></svg>