<svg xmlns="http://www.w3.org/2000/svg" xmlns:xlink="http://www.w3.org/1999/xlink" width="100" zoomAndPan="magnify" viewBox="0 0 75 71.249999" height="95" preserveAspectRatio="xMidYMid meet" version="1.0"><defs><clipPath id="c3c1e64164"><path d="M 30.808594 57.175781 L 31.234375 57.175781 L 31.234375 57.480469 L 30.808594 57.480469 Z M 30.808594 57.175781 " clip-rule="nonzero"/></clipPath><clipPath id="e84a764d25"><path d="M 31.210938 57.375 C 30.402344 57.644531 31.121094 57.195312 31.121094 57.195312 " clip-rule="nonzero"/></clipPath><clipPath id="968cedb42f"><path d="M 6 4 L 68 4 L 68 70.507812 L 6 70.507812 Z M 6 4 " clip-rule="nonzero"/></clipPath><clipPath id="23df87e47a"><path d="M 0.390625 21 L 5 21 L 5 32 L 0.390625 32 Z M 0.390625 21 " clip-rule="nonzero"/></clipPath><clipPath id="ad51621fef"><path d="M 66 6 L 73.867188 6 L 73.867188 17 L 66 17 Z M 66 6 " clip-rule="nonzero"/></clipPath></defs><g clip-path="url(#c3c1e64164)"><g clip-path="url(#e84a764d25)"><path fill="#fdcf60" d="M 26.816406 53.609375 L 34.894531 53.609375 L 34.894531 61.414062 L 26.816406 61.414062 Z M 26.816406 53.609375 " fill-opacity="1" fill-rule="nonzero"/></g></g><g clip-path="url(#968cedb42f)"><path fill="#fdcf60" d="M 25.359375 70.144531 L 25.359375 39.367188 C 23.574219 41.410156 21.90625 43.117188 20.320312 44.523438 C 18.722656 45.902344 17.503906 47.058594 15.863281 47.71875 C 14.160156 48.378906 11.792969 49.007812 10.367188 48.410156 C 8.9375 47.757812 8.027344 46.542969 7.398438 43.945312 C 6.777344 41.304688 6.652344 36.140625 6.59375 32.847656 C 6.496094 29.53125 5.855469 26.015625 6.933594 24.382812 C 8.019531 22.757812 11.808594 22.453125 13 23.234375 C 14.15625 24.023438 13.699219 26.613281 13.917969 29.074219 C 14.117188 31.539062 14.230469 34.417969 14.261719 37.878906 C 15.511719 36.589844 16.820312 35.320312 18.261719 33.992188 C 19.703125 32.65625 20.957031 30.796875 22.839844 29.992188 C 24.699219 29.1875 27.039062 28.929688 29.359375 29.1875 C 31.675781 29.445312 34.171875 31.425781 36.566406 31.472656 C 38.933594 31.464844 41.332031 29.960938 43.433594 29.300781 C 45.484375 28.648438 46.738281 30.167969 48.921875 27.585938 C 51.117188 24.960938 54.375 17.535156 56.46875 13.746094 C 58.519531 9.929688 59.542969 6.308594 61.273438 4.933594 C 62.996094 3.589844 66.019531 4.355469 66.769531 5.625 C 67.476562 6.851562 67.6875 7.929688 65.625 12.371094 C 63.523438 16.84375 57.234375 27.714844 54.410156 32.164062 C 51.582031 36.550781 49.75 38.714844 48.808594 38.683594 L 48.808594 70.144531 C 40.996094 70.144531 33.179688 70.144531 25.359375 70.144531 Z M 25.359375 70.144531 " fill-opacity="1" fill-rule="evenodd"/></g><path fill="#fdcf60" d="M 37.941406 8.351562 C 42.988281 8.351562 47.089844 12.453125 47.089844 17.503906 C 47.089844 22.558594 42.988281 26.660156 37.941406 26.660156 C 32.890625 26.660156 28.792969 22.558594 28.792969 17.503906 C 28.792969 12.453125 32.890625 8.351562 37.941406 8.351562 " fill-opacity="1" fill-rule="evenodd"/><path fill="#fdcf60" d="M 1.671875 25.640625 L 16.660156 25.640625 L 16.660156 27.242188 L 1.671875 27.242188 Z M 1.671875 25.640625 " fill-opacity="1" fill-rule="evenodd"/><path fill="#fdcf60" d="M 17.273438 21.0625 C 16.242188 21.0625 15.398438 21.898438 15.398438 22.933594 L 15.398438 29.71875 C 15.398438 30.75 16.242188 31.59375 17.273438 31.59375 L 18.109375 31.59375 C 19.140625 31.59375 19.976562 30.75 19.976562 29.71875 L 19.976562 22.933594 C 19.976562 21.898438 19.140625 21.0625 18.109375 21.0625 Z M 17.273438 21.0625 " fill-opacity="1" fill-rule="evenodd"/><g clip-path="url(#23df87e47a)"><path fill="#fdcf60" d="M 2.289062 21.0625 C 1.257812 21.0625 0.414062 21.898438 0.414062 22.933594 L 0.414062 29.71875 C 0.414062 30.75 1.253906 31.59375 2.289062 31.59375 L 3.125 31.59375 C 4.15625 31.59375 4.992188 30.75 4.992188 29.71875 L 4.992188 22.933594 C 4.992188 21.898438 4.15625 21.0625 3.125 21.0625 Z M 2.289062 21.0625 " fill-opacity="1" fill-rule="evenodd"/></g><path fill="#fdcf60" d="M 55.839844 4.363281 L 55.203125 5.835938 L 68.964844 11.765625 L 69.601562 10.292969 Z M 55.839844 4.363281 " fill-opacity="1" fill-rule="evenodd"/><g clip-path="url(#ad51621fef)"><path fill="#fdcf60" d="M 71.972656 6.328125 C 71.023438 5.925781 69.921875 6.359375 69.511719 7.308594 C 68.625 9.386719 67.726562 11.460938 66.832031 13.539062 C 66.421875 14.488281 66.863281 15.589844 67.8125 16 C 68.0625 16.105469 68.320312 16.21875 68.578125 16.328125 C 69.527344 16.738281 70.628906 16.296875 71.03125 15.347656 C 71.925781 13.273438 72.820312 11.195312 73.71875 9.121094 C 74.128906 8.171875 73.6875 7.074219 72.738281 6.664062 C 72.488281 6.550781 72.230469 6.441406 71.972656 6.328125 Z M 71.972656 6.328125 " fill-opacity="1" fill-rule="evenodd"/></g><path fill="#fdcf60" d="M 58.207031 0.40625 C 57.257812 -0.00390625 56.15625 0.429688 55.746094 1.378906 C 54.859375 3.460938 53.964844 5.53125 53.066406 7.613281 C 52.65625 8.5625 53.097656 9.660156 54.046875 10.070312 C 54.296875 10.179688 54.554688 10.292969 54.8125 10.398438 C 55.761719 10.808594 56.863281 10.367188 57.265625 9.425781 C 58.160156 7.347656 59.058594 5.265625 59.953125 3.195312 C 60.363281 2.246094 59.921875 1.144531 58.972656 0.734375 C 58.722656 0.628906 58.464844 0.515625 58.207031 0.40625 Z M 58.207031 0.40625 " fill-opacity="1" fill-rule="evenodd"/></svg>