<svg xmlns="http://www.w3.org/2000/svg" xmlns:xlink="http://www.w3.org/1999/xlink" width="147" zoomAndPan="magnify" viewBox="0 0 110.25 89.249998" height="119" preserveAspectRatio="xMidYMid meet" version="1.0"><defs><clipPath id="f8ce2e765a"><path d="M 0.0859375 3 L 108.675781 3 L 108.675781 87.761719 L 0.0859375 87.761719 Z M 0.0859375 3 " clip-rule="nonzero"/></clipPath><clipPath id="1afa43756a"><path d="M 69.230469 20.652344 L 69.582031 20.652344 L 69.582031 20.90625 L 69.230469 20.90625 Z M 69.230469 20.652344 " clip-rule="nonzero"/></clipPath><clipPath id="fc513b3074"><path d="M 69.5625 20.820312 C 68.894531 21.042969 69.488281 20.671875 69.488281 20.671875 " clip-rule="nonzero"/></clipPath></defs><g clip-path="url(#f8ce2e765a)"><path fill="#fdcf60" d="M 55.78125 13.804688 C 55.429688 14.15625 54.953125 14.355469 54.457031 14.355469 C 53.960938 14.355469 53.484375 14.15625 53.132812 13.804688 C 46.074219 6.75 39.089844 3.117188 33.070312 3.117188 C 29.484375 3.117188 26.238281 4.402344 23.523438 7.023438 C 17.222656 13.09375 15.578125 25.699219 22.804688 33.484375 L 54.457031 67.574219 L 86.109375 33.484375 C 93.335938 25.699219 91.691406 13.09375 85.390625 7.023438 C 78.113281 0.0078125 67.042969 2.542969 55.78125 13.804688 Z M 75.398438 31.804688 L 67.359375 31.804688 L 59.207031 44.6875 C 58.859375 45.234375 58.261719 45.558594 57.621094 45.558594 C 57.589844 45.558594 57.558594 45.558594 57.527344 45.558594 C 56.851562 45.523438 56.25 45.128906 55.945312 44.527344 L 48.285156 29.25 L 44.503906 35.226562 C 44.160156 35.769531 43.5625 36.097656 42.917969 36.097656 L 33.515625 36.097656 C 32.480469 36.097656 31.640625 35.257812 31.640625 34.222656 C 31.640625 33.1875 32.480469 32.347656 33.515625 32.347656 L 41.886719 32.347656 L 46.890625 24.445312 C 47.253906 23.875 47.894531 23.542969 48.566406 23.574219 C 49.242188 23.609375 49.847656 24.003906 50.152344 24.605469 L 57.8125 39.882812 L 64.746094 28.925781 C 65.089844 28.382812 65.6875 28.054688 66.328125 28.054688 L 75.398438 28.054688 C 76.433594 28.054688 77.273438 28.894531 77.273438 29.929688 C 77.273438 30.964844 76.433594 31.804688 75.398438 31.804688 Z M 0.0859375 65.394531 L 2.738281 65.394531 L 2.738281 75.265625 L 0.0859375 75.265625 Z M 9.683594 58.378906 L 15.304688 58.378906 L 15.304688 82.28125 L 9.683594 82.28125 C 7.921875 82.28125 6.484375 80.847656 6.484375 79.082031 L 6.484375 61.578125 C 6.484375 59.8125 7.921875 58.378906 9.683594 58.378906 Z M 27.875 54.25 L 27.875 86.414062 C 27.875 87.242188 27.199219 87.921875 26.367188 87.921875 L 20.5625 87.921875 C 19.730469 87.921875 19.054688 87.242188 19.054688 86.414062 L 19.054688 54.25 C 19.054688 53.417969 19.730469 52.742188 20.5625 52.742188 L 26.367188 52.742188 C 27.199219 52.742188 27.875 53.417969 27.875 54.25 Z M 102.425781 61.410156 L 102.425781 79.25 C 102.425781 80.921875 101.066406 82.28125 99.394531 82.28125 L 93.609375 82.28125 L 93.609375 58.378906 L 99.394531 58.378906 C 101.066406 58.378906 102.425781 59.738281 102.425781 61.410156 Z M 108.824219 65.394531 L 108.824219 75.265625 L 106.175781 75.265625 L 106.175781 65.394531 Z M 61.597656 65.394531 L 77.289062 65.394531 L 77.289062 75.265625 L 31.625 75.265625 L 31.625 65.394531 L 47.316406 65.394531 L 53.082031 71.605469 C 53.4375 71.988281 53.9375 72.207031 54.457031 72.207031 C 54.976562 72.207031 55.476562 71.988281 55.832031 71.605469 Z M 89.859375 54.25 L 89.859375 86.414062 C 89.859375 87.242188 89.183594 87.921875 88.351562 87.921875 L 82.546875 87.921875 C 81.714844 87.921875 81.039062 87.242188 81.039062 86.414062 L 81.039062 54.25 C 81.039062 53.417969 81.714844 52.742188 82.546875 52.742188 L 88.351562 52.742188 C 89.183594 52.742188 89.859375 53.417969 89.859375 54.25 Z M 89.859375 54.25 " fill-opacity="1" fill-rule="nonzero"/></g><g clip-path="url(#1afa43756a)"><g clip-path="url(#fc513b3074)"><path fill="#fdcf60" d="M 65.917969 17.695312 L 72.617188 17.695312 L 72.617188 24.167969 L 65.917969 24.167969 Z M 65.917969 17.695312 " fill-opacity="1" fill-rule="nonzero"/></g></g></svg>