<svg xmlns="http://www.w3.org/2000/svg" xmlns:xlink="http://www.w3.org/1999/xlink" width="66" zoomAndPan="magnify" viewBox="0 0 49.5 62.999997" height="84" preserveAspectRatio="xMidYMid meet" version="1.0"><defs><clipPath id="b34fa02ff6"><path d="M 30.511719 46.628906 L 30.863281 46.628906 L 30.863281 46.882812 L 30.511719 46.882812 Z M 30.511719 46.628906 " clip-rule="nonzero"/></clipPath><clipPath id="5ffcee14b1"><path d="M 30.84375 46.796875 C 30.175781 47.019531 30.769531 46.648438 30.769531 46.648438 " clip-rule="nonzero"/></clipPath><clipPath id="7c2aa82930"><path d="M 0 0.316406 L 48.261719 0.316406 L 48.261719 62.683594 L 0 62.683594 Z M 0 0.316406 " clip-rule="nonzero"/></clipPath></defs><g clip-path="url(#b34fa02ff6)"><g clip-path="url(#5ffcee14b1)"><path fill="#fdcf60" d="M 27.207031 43.675781 L 33.890625 43.675781 L 33.890625 50.136719 L 27.207031 50.136719 Z M 27.207031 43.675781 " fill-opacity="1" fill-rule="nonzero"/></g></g><g clip-path="url(#7c2aa82930)"><path fill="#fdcf60" d="M 48.273438 57.886719 C 48.273438 41.269531 37.457031 27.804688 24.136719 27.804688 C 10.816406 27.804688 0 41.269531 0 57.886719 C 0 60.476562 10.816406 62.589844 24.136719 62.589844 C 37.457031 62.589844 48.273438 60.476562 48.273438 57.886719 Z M 24.136719 0.316406 C 31.402344 0.316406 37.289062 6.203125 37.289062 13.46875 C 37.289062 20.738281 31.402344 26.625 24.136719 26.625 C 16.871094 26.625 10.984375 20.738281 10.984375 13.46875 C 10.984375 6.203125 16.871094 0.316406 24.136719 0.316406 Z M 24.136719 0.316406 " fill-opacity="1" fill-rule="evenodd"/></g></svg>