<svg xmlns="http://www.w3.org/2000/svg" xmlns:xlink="http://www.w3.org/1999/xlink" width="154" zoomAndPan="magnify" viewBox="0 0 115.5 86.999996" height="116" preserveAspectRatio="xMidYMid meet" version="1.0"><defs><clipPath id="435a4def04"><path d="M 69.484375 60.097656 L 69.753906 60.097656 L 69.753906 60.292969 L 69.484375 60.292969 Z M 69.484375 60.097656 " clip-rule="nonzero"/></clipPath><clipPath id="ca5b8d6303"><path d="M 69.738281 60.226562 C 69.226562 60.394531 69.683594 60.113281 69.683594 60.113281 " clip-rule="nonzero"/></clipPath><clipPath id="250e65c0e2"><path d="M 0 0.1875 L 114.253906 0.1875 L 114.253906 86.066406 L 0 86.066406 Z M 0 0.1875 " clip-rule="nonzero"/></clipPath></defs><g clip-path="url(#435a4def04)"><g clip-path="url(#ca5b8d6303)"><path fill="#fdcf60" d="M 66.953125 57.839844 L 72.074219 57.839844 L 72.074219 62.785156 L 66.953125 62.785156 Z M 66.953125 57.839844 " fill-opacity="1" fill-rule="nonzero"/></g></g><g clip-path="url(#250e65c0e2)"><path fill="#fdcf60" d="M 64.777344 28.699219 C 65.492188 31.375 67.167969 33.417969 69.804688 34.847656 C 72.195312 32.867188 75.382812 32.007812 79.386719 32.273438 C 83.332031 32.558594 86.316406 33.785156 88.296875 35.933594 C 90.011719 34.625 92.078125 34.234375 94.46875 34.808594 C 96.347656 35.238281 98.207031 36.175781 100.027344 37.609375 C 100.945312 34.542969 100.945312 31.417969 100.027344 28.269531 C 99.230469 25.449219 97.941406 23.140625 96.144531 21.382812 C 92.160156 22.628906 88.417969 22.261719 84.945312 20.320312 C 84.742188 18.828125 84.988281 17.582031 85.660156 16.539062 C 85.867188 16.214844 86.210938 15.824219 86.683594 15.335938 C 87.171875 14.78125 87.5 14.375 87.703125 14.148438 C 89.625 13.984375 91.605469 14.230469 93.691406 14.863281 C 96.714844 15.785156 98.453125 16.273438 98.902344 16.355469 C 99.863281 17.765625 101.558594 20.035156 103.992188 23.179688 C 106.339844 26.144531 108.078125 28.515625 109.203125 30.3125 C 112.898438 36.175781 114.535156 42.164062 114.042969 48.273438 C 100.761719 53.382812 91.238281 53.75 85.496094 49.398438 C 85.007812 50.847656 82.207031 56.449219 77.097656 66.238281 C 73.644531 72.9375 71.949219 79.640625 72.011719 86.34375 L 43.523438 86.34375 C 43.832031 79.558594 42.21875 72.855469 38.683594 66.238281 C 33.921875 57.328125 31.222656 51.726562 30.589844 49.398438 C 28.320312 51.441406 25.175781 52.421875 21.191406 52.339844 C 18.59375 52.257812 15.203125 51.667969 11.015625 50.542969 C 10.21875 50.296875 9.132812 50.09375 7.785156 49.890625 C 6.273438 49.683594 5.273438 49.519531 4.78125 49.398438 C 2.675781 48.96875 1.390625 48.03125 0.960938 46.597656 C 0 43.554688 2.0625 37.769531 7.132812 29.230469 C 9.953125 24.40625 12.628906 20.914062 15.140625 18.746094 C 18.902344 15.476562 23.316406 13.945312 28.382812 14.148438 C 30.179688 17.089844 31.101562 18.953125 31.183594 19.707031 C 30.121094 20.789062 28.445312 21.484375 26.15625 21.8125 C 23.886719 22.160156 21.824219 22.035156 20.003906 21.382812 C 18.003906 22.976562 16.570312 25.164062 15.734375 27.921875 C 14.875 30.78125 14.792969 33.847656 15.507812 37.078125 C 15.980469 37.035156 16.757812 36.75 17.839844 36.238281 C 19.269531 35.644531 20.292969 35.238281 20.882812 35.03125 C 23.5625 34.15625 25.6875 34.460938 27.238281 35.933594 C 29.382812 33.96875 32.328125 32.765625 36.046875 32.273438 C 40.113281 31.804688 43.15625 32.664062 45.199219 34.847656 C 48.101562 33.5 49.675781 31.742188 49.859375 29.597656 C 50.023438 28.148438 49.449219 25.917969 48.121094 22.894531 C 46.527344 19.296875 45.589844 16.683594 45.324219 15.046875 C 44.710938 11.878906 45.242188 8.980469 46.875 6.300781 C 48.347656 3.789062 50.554688 2.070312 53.457031 1.152344 C 56.257812 0.234375 59.054688 0.210938 61.835938 1.089844 C 64.839844 2.011719 67.148438 3.707031 68.78125 6.179688 C 70.621094 8.980469 71.335938 12.371094 70.949219 16.355469 C 70.742188 18.316406 70.007812 20.300781 68.722656 22.28125 C 66.453125 25.878906 65.125 28.003906 64.777344 28.699219 Z M 64.777344 28.699219 " fill-opacity="1" fill-rule="nonzero"/></g></svg>